<svg width="16" height="16" viewBox="0 0 16 16" fill="none" xmlns="http://www.w3.org/2000/svg">
<path d="M16 8C16 12.4183 12.4183 16 8 16C3.58172 16 0 12.4183 0 8C0 3.58172 3.58172 0 8 0C12.4183 0 16 3.58172 16 8Z" fill="white"/>
<path d="M15.5 8C15.5 12.1421 12.1421 15.5 8 15.5C3.85786 15.5 0.5 12.1421 0.5 8C0.5 3.85786 3.85786 0.5 8 0.5C12.1421 0.5 15.5 3.85786 15.5 8Z" stroke="#004166" stroke-opacity="0.2"/>
<path d="M7.35664 9.73574C7.32852 9.65762 7.30352 9.55605 7.28164 9.43105C7.25977 9.30605 7.24883 9.18262 7.24883 9.06074C7.24883 8.87012 7.28633 8.69824 7.36133 8.54512C7.43945 8.38887 7.53477 8.24355 7.64727 8.10918C7.76289 7.9748 7.88633 7.84512 8.01758 7.72012C8.15195 7.59512 8.27539 7.47324 8.38789 7.35449C8.50352 7.23574 8.59883 7.11074 8.67383 6.97949C8.75195 6.84824 8.79102 6.70449 8.79102 6.54824C8.79102 6.40762 8.76289 6.28574 8.70664 6.18262C8.65039 6.07637 8.57227 5.98887 8.47227 5.92012C8.37539 5.84824 8.26289 5.79512 8.13477 5.76074C8.00977 5.72637 7.87539 5.70918 7.73164 5.70918C7.26602 5.70918 6.82227 5.91699 6.40039 6.33262V5.2498C6.91289 4.9498 7.44414 4.7998 7.99414 4.7998C8.24727 4.7998 8.48633 4.83262 8.71133 4.89824C8.93633 4.96387 9.1332 5.06074 9.30195 5.18887C9.4707 5.31699 9.60352 5.47637 9.70039 5.66699C9.79727 5.85762 9.8457 6.07949 9.8457 6.33262C9.8457 6.57324 9.80508 6.7873 9.72383 6.9748C9.64258 7.1623 9.53945 7.33574 9.41445 7.49512C9.29258 7.65137 9.15977 7.79043 9.01602 7.9123C8.87539 8.03418 8.74258 8.15605 8.61758 8.27793C8.4957 8.3998 8.39414 8.52637 8.31289 8.65762C8.23164 8.78887 8.19102 8.93418 8.19102 9.09355C8.19102 9.22793 8.2082 9.3498 8.24258 9.45918C8.27695 9.56855 8.31133 9.66074 8.3457 9.73574H7.35664ZM7.89102 11.7186C7.71289 11.7186 7.55508 11.6576 7.41758 11.5357C7.28633 11.417 7.2207 11.2701 7.2207 11.0951C7.2207 10.917 7.28633 10.7701 7.41758 10.6545C7.55195 10.5295 7.70977 10.467 7.89102 10.467C8.06914 10.467 8.22539 10.5295 8.35977 10.6545C8.49102 10.7701 8.55664 10.917 8.55664 11.0951C8.55664 11.2701 8.49102 11.417 8.35977 11.5357C8.22227 11.6576 8.06602 11.7186 7.89102 11.7186Z" fill="#004166" fill-opacity="0.2"/>
</svg>

